<svg xmlns="http://www.w3.org/2000/svg" viewBox="2.2 2.2 43.6 43.6"><defs><filter id="s"><feDropShadow dx="0" dy="1.3" stdDeviation="1.1" flood-color="#53a9a8" flood-opacity=".22"/></filter><linearGradient id="roof" x1="8" y1="12" x2="40" y2="28" gradientUnits="userSpaceOnUse"><stop stop-color="#58d0ff"/><stop offset="1" stop-color="#167fe9"/></linearGradient></defs><g transform="translate(0 -2)" filter="url(#s)"><path d="M5 25 24 7l19 18-3.5 3.8L24 14.7 8.5 28.8z" fill="url(#roof)"/><rect x="32" y="9" width="5" height="11" rx="1.5" fill="#258fe9"/><path d="M12 25.5 24 14.5l12 11V42a3 3 0 0 1-3 3H15a3 3 0 0 1-3-3Z" fill="#fff" stroke="#d8f1ee"/><rect x="19" y="26" width="6" height="6" rx="1" fill="#39a8f3"/><rect x="27" y="26" width="6" height="6" rx="1" fill="#39a8f3"/><rect x="22" y="35" width="7" height="10" rx="1.5" fill="#2b98ed"/><circle cx="9" cy="36" r="5" fill="#37ca83"/><circle cx="13" cy="39" r="4.5" fill="#26b977"/></g></svg>
