<svg xmlns="http://www.w3.org/2000/svg" viewBox="0 0 48 48"><defs><filter id="shadow"><feDropShadow dx="0" dy="1.3" stdDeviation="1.1" flood-color="#8067cc" flood-opacity=".22"/></filter><linearGradient id="tower" x1="18" y1="7" x2="33" y2="43" gradientUnits="userSpaceOnUse"><stop stop-color="#a68cff"/><stop offset="1" stop-color="#5b3ee0"/></linearGradient><linearGradient id="side" x1="5" y1="22" x2="19" y2="43" gradientUnits="userSpaceOnUse"><stop stop-color="#9d83f3"/><stop offset="1" stop-color="#7153db"/></linearGradient></defs><rect x="2" y="2" width="44" height="44" rx="12" fill="#f0edff"/><g filter="url(#shadow)"><rect x="5" y="23" width="14" height="20" rx="3" fill="url(#side)"/><rect x="29" y="21" width="14" height="22" rx="3" fill="#8c73e8"/><rect x="16" y="7" width="18" height="36" rx="4" fill="url(#tower)"/><path d="M20 12h4v4h-4zm7 0h4v4h-4zm-7 7h4v4h-4zm7 0h4v4h-4zm-7 7h4v4h-4zm7 0h4v4h-4zM9 28h4v4H9zm0 7h4v4H9zm24-8h5v4h-5zm0 7h5v4h-5z" fill="#bff0ff"/><rect x="21" y="34" width="8" height="9" rx="2" fill="#684bd0"/><path d="M18 9h14" stroke="#c8baff" stroke-width="1.5" stroke-linecap="round" opacity=".8"/></g></svg>