<svg xmlns="http://www.w3.org/2000/svg" viewBox="2.2 2.2 43.6 43.6"><defs><filter id="s"><feDropShadow dx="0" dy="1.2" stdDeviation="1" flood-color="#b88724" flood-opacity=".2"/></filter><linearGradient id="gold" x1="27" y1="23" x2="43" y2="43" gradientUnits="userSpaceOnUse"><stop stop-color="#ffdc61"/><stop offset="1" stop-color="#ee9f19"/></linearGradient></defs><g filter="url(#s)"><path d="M9 6h19l8 8v25a4 4 0 0 1-4 4H9a4 4 0 0 1-4-4V10a4 4 0 0 1 4-4Z" fill="#fff" stroke="#f0e4c8"/><path d="M28 6v8h8" fill="#2694ed"/><path d="M14 19h12M14 25h11M14 31h8" stroke="#2f9ced" stroke-width="2.7" stroke-linecap="round"/></g><g filter="url(#s)"><path d="M35 23l9 3.4v6.2c0 5.6-3.6 9.3-9 12.2-5.4-2.9-9-6.6-9-12.2v-6.2z" fill="url(#gold)"/><path d="m30.7 32.4 2.8 2.8 5.3-5.7" stroke="#fff" stroke-width="2.7" fill="none" stroke-linecap="round" stroke-linejoin="round"/></g></svg>
